# xmcd CD database file
#
# Track frame offsets:
#	150
#	12830
#	25913
#
# Disc length: 536 seconds
#
# Revision: 2
# Processed by: cddbd v1.5.2PL0 Copyright (c) Steve Scherf et al.
# Submitted via: CDex 1.76
#
DISCID=17021603
DTITLE=Maj Karma - Kyynel-single
DYEAR=2004
DGENRE=Finnish Rock/Metal
TTITLE0=Kyynel
TTITLE1=Rautavaara (Garage-versio)
TTITLE2=Very Important Person (live)
EXTD=YEAR: 2004
EXTT0=
EXTT1=
EXTT2=
PLAYORDER=
